<svg width="30" height="38" viewBox="0 0 30 38" fill="none" xmlns="http://www.w3.org/2000/svg">
<rect width="30" height="38" fill="#282828"/>
<g clip-path="url(#clip0_0_1)">
<rect width="1440" height="6731" transform="translate(-167 -6412)" fill="#040A0A"/>
<g filter="url(#filter0_f_0_1)">
<ellipse cx="-138.559" cy="-19.623" rx="49.7935" ry="105.527" transform="rotate(21.0974 -138.559 -19.623)" fill="#43FFD2"/>
</g>
<rect x="-167" y="-18" width="1440" height="337" fill="black"/>
<path d="M8.68 32.9C8.68 34.06 8.8 34.92 9.04 35.48C9.32 36 9.8 36.36 10.48 36.56C11.2 36.76 12.32 36.86 13.84 36.86H21.52C25.48 36.86 27.82 34.32 28.54 29.24C28.54 29.12 28.64 29.08 28.84 29.12C29.08 29.12 29.2 29.18 29.2 29.3C28.84 32.46 28.66 35.06 28.66 37.1C28.66 37.42 28.6 37.66 28.48 37.82C28.36 37.94 28.12 38 27.76 38H0.16C0.0800001 38 0.0400001 37.88 0.0400001 37.64C0.0400001 37.4 0.0800001 37.28 0.16 37.28C1.72 37.28 2.86 37.18 3.58 36.98C4.34 36.78 4.84 36.4 5.08 35.84C5.36 35.24 5.5 34.34 5.5 33.14V5.36C5.5 4.16 5.36 3.28 5.08 2.72C4.84 2.16 4.34 1.78 3.58 1.58C2.86 1.34 1.72 1.22 0.16 1.22C0.0800001 1.22 0.0400001 1.1 0.0400001 0.859999C0.0400001 0.62 0.0800001 0.5 0.16 0.5L3.1 0.559999C4.78 0.639998 6.1 0.679998 7.06 0.679998C8.14 0.679998 9.52 0.639998 11.2 0.559999L14.02 0.5C14.1 0.5 14.14 0.62 14.14 0.859999C14.14 1.1 14.1 1.22 14.02 1.22C12.46 1.22 11.3 1.34 10.54 1.58C9.82 1.78 9.32 2.18 9.04 2.78C8.8 3.34 8.68 4.22 8.68 5.42V32.9Z" fill="#8A8686"/>
<path d="M28.55 17.25C28.55 17.35 28.45 17.4 28.25 17.4C28.0833 17.4 28 17.35 28 17.25C28 15.55 27.55 14.2 26.65 13.2C25.75 12.2 24.5667 11.7 23.1 11.7H19.65C18.4167 11.7 17.5 11.7833 16.9 11.95C16.3 12.1167 15.8833 12.4167 15.65 12.85C15.4167 13.2833 15.3 13.95 15.3 14.85V25.85H20.75C22.45 25.85 23.65 25.6 24.35 25.1C25.05 24.5667 25.4 23.6667 25.4 22.4C25.4 22.3333 25.5 22.3 25.7 22.3C25.9 22.3 26 22.3333 26 22.4L25.95 26.35C25.95 27.3167 25.9667 28.0333 26 28.5L26.05 30.85C26.05 30.9167 25.95 30.95 25.75 30.95C25.55 30.95 25.45 30.9167 25.45 30.85C25.45 29.35 25.0833 28.3 24.35 27.7C23.65 27.1 22.3833 26.8 20.55 26.8H15.3V37.75C15.3 38.8167 15.45 39.6 15.75 40.1C16.05 40.5667 16.6167 40.9 17.45 41.1C18.3167 41.3 19.6833 41.4 21.55 41.4C21.65 41.4 21.7 41.5 21.7 41.7C21.7 41.9 21.65 42 21.55 42C20.1833 42 19.1167 41.9833 18.35 41.95L14 41.9L10.7 41.95C10.1 41.9833 9.26667 42 8.2 42C8.13333 42 8.1 41.9 8.1 41.7C8.1 41.5 8.13333 41.4 8.2 41.4C9.5 41.4 10.45 41.3167 11.05 41.15C11.6833 40.9833 12.1 40.6667 12.3 40.2C12.5333 39.7 12.65 38.95 12.65 37.95V14.8C12.65 13.8 12.5333 13.0667 12.3 12.6C12.1 12.1333 11.6833 11.8167 11.05 11.65C10.45 11.45 9.5 11.35 8.2 11.35C8.13333 11.35 8.1 11.25 8.1 11.05C8.1 10.85 8.13333 10.75 8.2 10.75H28C28.3 10.75 28.45 10.9 28.45 11.2L28.55 17.25Z" fill="white"/>
</g>
<defs>
<filter id="filter0_f_0_1" x="-448.569" y="-369.712" width="620.021" height="700.178" filterUnits="userSpaceOnUse" color-interpolation-filters="sRGB">
<feFlood flood-opacity="0" result="BackgroundImageFix"/>
<feBlend mode="normal" in="SourceGraphic" in2="BackgroundImageFix" result="shape"/>
<feGaussianBlur stdDeviation="125" result="effect1_foregroundBlur_0_1"/>
</filter>
<clipPath id="clip0_0_1">
<rect width="1440" height="6731" fill="white" transform="translate(-167 -6412)"/>
</clipPath>
</defs>
</svg>
